<svg width="499" height="77" viewBox="0 0 499 77" fill="none" xmlns="http://www.w3.org/2000/svg">
<path d="M51.6489 38.2405C51.6489 48.2655 51.6589 57.1965 51.6589 67.2205C50.7219 67.7415 49.7949 68.2785 48.8319 68.7505L48.8329 68.7535C44.4169 70.9265 39.4739 72.0845 34.6259 72.0845H34.6229C24.6349 72.0845 14.8209 67.5735 8.36588 59.9305C3.35988 54.0005 0.629883 46.2745 0.629883 38.5335V38.5285C0.629883 28.7605 5.09588 19.2525 12.5499 12.9415C18.6649 7.76549 26.7179 4.97449 34.6199 4.97449H34.6229C40.1839 4.97449 45.2929 6.47849 50.2019 9.00549C50.2019 11.6955 50.2019 14.3875 50.2019 17.0775H50.1249C45.2859 14.2295 40.5299 11.9865 34.6239 11.9865H34.6199C28.1309 11.9865 21.6769 14.2645 16.7619 18.5485L16.7589 18.5445C11.0539 23.5155 7.64188 30.9245 7.64188 38.5275V38.5325C7.64188 44.6205 9.72988 50.6875 13.6609 55.3645L13.6619 55.3665C18.7989 61.4775 26.6559 65.0725 34.6209 65.0725H34.6249C37.9579 65.0725 41.2409 64.4125 44.3109 63.1275V45.1595H29.7209C29.7209 42.8525 29.7209 40.5465 29.7209 38.2395L51.6489 38.2405Z" fill="white"/>
<path d="M327.29 5.17151H328.825V5.21951C330.381 5.28851 331.905 5.46351 333.395 5.73751C333.904 5.83151 334.384 5.92951 334.833 6.03351C337.278 6.59551 339.623 7.42451 341.835 8.48851L342.704 8.90651V16.9955H342.622L340.372 15.6215L340.371 15.6195C339.826 15.3095 339.284 15.0265 338.749 14.7695C338.231 14.5205 337.653 14.2695 337.019 14.0185C334.244 12.9225 331.249 12.2815 328.125 12.1845H326.441C324.297 12.2505 322.216 12.5735 320.228 13.1205C319.434 13.3405 318.623 13.6085 317.799 13.9245C317.013 14.2265 316.238 14.5685 315.481 14.9455C312.895 16.2335 310.547 17.9335 308.522 19.9595C303.892 24.5895 300.961 30.9085 300.747 37.8995V39.5745C300.813 41.7185 301.136 43.8005 301.684 45.7875C301.902 46.5815 302.171 47.3925 302.486 48.2155C302.789 49.0035 303.13 49.7775 303.507 50.5345C304.794 53.1205 306.495 55.4695 308.521 57.4955C313.148 62.1205 319.46 65.0515 326.444 65.2695H328.15C329.432 65.2275 330.707 65.0915 331.963 64.8685C332.46 64.7795 332.946 64.6795 333.422 64.5665V64.5645C335.912 63.9745 338.262 63.0375 340.416 61.8075L342.642 60.5375H342.705V68.5255L341.853 68.9525L341.848 68.9555L341.825 68.9675C341.169 69.2815 340.542 69.5625 339.949 69.8045C339.345 70.0505 338.697 70.2895 338.011 70.5215C335.11 71.4995 332.028 72.0915 328.827 72.2355V72.2835H325.754V72.2355C323.209 72.1205 320.736 71.7215 318.371 71.0715C317.413 70.8085 316.504 70.5165 315.644 70.1985C311.058 68.5015 306.947 65.8365 303.563 62.4525C300.538 59.4275 298.084 55.8115 296.382 51.7885C296.003 50.8905 295.667 49.9925 295.378 49.1015C295.082 48.1895 294.822 47.2565 294.604 46.3045C294.154 44.3555 293.876 42.3365 293.783 40.2645H293.734V37.1915H293.783C293.897 34.6475 294.295 32.1735 294.946 29.8075C295.21 28.8515 295.501 27.9415 295.818 27.0815C297.515 22.4945 300.181 18.3845 303.564 15.0005C306.589 11.9755 310.205 9.52151 314.228 7.82051C315.127 7.44051 316.025 7.10351 316.915 6.81551C317.827 6.51951 318.76 6.25951 319.713 6.04151C321.66 5.59251 323.68 5.31251 325.753 5.22051V5.17251H327.287L327.29 5.17151Z" fill="white"/>
<path d="M83.281 6.15247H117.706C117.706 8.47947 117.706 10.8085 117.706 13.1355H90.624V34.9145H113.53C113.53 37.2345 113.53 39.5555 113.53 41.8745H90.624V64.1935H119.136C119.136 66.5135 119.136 68.8335 119.136 71.1535H83.281V6.15247Z" fill="white"/>
<path d="M394.927 0.928345C406.279 26.1203 417.632 51.3133 428.986 76.5043C417.63 71.7983 406.274 67.0913 394.916 62.3853C383.572 67.0793 372.227 71.7743 360.884 76.4693L394.927 0.928345ZM394.927 16.9023L373.66 64.0903C380.746 61.1583 387.832 58.2233 394.92 55.2923C402.01 58.2313 409.108 61.1743 416.202 64.1133L394.927 16.9023Z" fill="#F85040"/>
<path d="M175.231 5.15857C193.115 5.15857 208.346 20.7656 208.346 38.7106V38.7136C208.346 56.6916 193.152 72.2696 175.233 72.2696H175.228C157.344 72.2696 142.113 56.6596 142.113 38.7176V38.7116C142.113 20.7816 157.354 5.15857 175.227 5.15857H175.231ZM175.23 12.1716C166.36 12.1716 158.105 17.0036 153.349 24.4216C150.611 28.6906 149.125 33.6416 149.125 38.7136C149.125 45.9036 152.166 52.8616 157.316 57.8646C162.104 62.5156 168.538 65.2566 175.229 65.2566C182.419 65.2566 189.305 62.0786 194.17 56.8166C198.705 51.9116 201.334 45.3996 201.334 38.7136C201.334 33.1416 199.54 27.7226 196.285 23.2016C191.429 16.4566 183.588 12.1716 175.23 12.1716Z" fill="white"/>
<path d="M454.234 6.10242L491.484 56.6274V6.10342H498.484V71.0604H493.495L455.916 20.1684V71.0604H448.904V6.10242H454.234Z" fill="white"/>
<path d="M235.083 29.3174C232.268 23.3604 233.079 16.2374 237.627 11.2974L237.671 11.2494L237.677 11.2434C241.684 6.92337 247.681 4.98437 253.505 5.14837H253.517C258.601 5.33937 263.486 6.88337 268.189 8.74637L265.615 15.2624C261.642 13.6844 257.349 12.2114 253.029 12.1254L252.971 12.1234C248.881 12.0574 244.294 13.6074 241.94 17.0914L241.929 17.1084C240.018 19.9384 240.049 23.4594 241.467 26.4234C243.691 31.0734 248.846 33.6594 253.137 36.0194C258.747 39.1014 263.4 41.9294 266.662 47.6144L266.608 47.6444C268.524 51.6784 269.026 56.4694 267.642 60.7544L267.646 60.7554L267.645 60.7604L267.639 60.7664C265.703 66.7534 260.362 70.4544 254.508 71.9464C245.271 74.3044 236.004 71.6314 229.09 65.5634C230.627 63.8074 232.163 62.0504 233.7 60.2954C237.186 63.4074 241.302 65.5264 246.07 65.9854C252.316 66.5894 259.101 64.4484 260.984 58.6254L260.986 58.6194C261.99 55.5034 261.332 51.6194 259.34 49.0574C256.841 45.8444 252.969 43.7394 249.06 41.6144C243.393 38.5334 237.909 35.2984 235.083 29.3174Z" fill="white"/>
</svg>
