<svg width="499" height="76" viewBox="0 0 499 76" fill="none" xmlns="http://www.w3.org/2000/svg">
<path d="M51.6489 37.338C51.6489 47.363 51.6589 56.294 51.6589 66.318C50.7219 66.839 49.7949 67.376 48.8319 67.848L48.8329 67.851C44.4169 70.024 39.4739 71.182 34.6259 71.182H34.6229C24.6349 71.182 14.8209 66.671 8.36588 59.028C3.35988 53.098 0.629883 45.372 0.629883 37.631V37.626C0.629883 27.858 5.09588 18.35 12.5499 12.039C18.6649 6.86302 26.7179 4.07202 34.6199 4.07202H34.6229C40.1839 4.07202 45.2929 5.57602 50.2019 8.10302C50.2019 10.793 50.2019 13.485 50.2019 16.175H50.1249C45.2859 13.327 40.5299 11.084 34.6239 11.084H34.6199C28.1309 11.084 21.6769 13.362 16.7619 17.646L16.7589 17.642C11.0539 22.613 7.64188 30.022 7.64188 37.625V37.63C7.64188 43.718 9.72988 49.785 13.6609 54.462L13.6619 54.464C18.7989 60.575 26.6559 64.17 34.6209 64.17H34.6249C37.9579 64.17 41.2409 63.51 44.3109 62.225V44.257H29.7209C29.7209 41.95 29.7209 39.644 29.7209 37.337L51.6489 37.338Z" fill="black"/>
<path d="M327.29 4.26904H328.825V4.31705C330.381 4.38605 331.905 4.56104 333.395 4.83504C333.904 4.92904 334.384 5.02704 334.833 5.13104C337.278 5.69304 339.623 6.52204 341.835 7.58604L342.704 8.00404V16.093H342.622L340.372 14.719L340.371 14.717C339.826 14.407 339.284 14.124 338.749 13.867C338.231 13.618 337.653 13.367 337.019 13.116C334.244 12.02 331.249 11.379 328.125 11.282H326.441C324.297 11.348 322.216 11.671 320.228 12.218C319.434 12.438 318.623 12.706 317.799 13.022C317.013 13.324 316.238 13.666 315.481 14.043C312.895 15.331 310.547 17.031 308.522 19.057C303.892 23.687 300.961 30.006 300.747 36.997V38.672C300.813 40.816 301.136 42.898 301.684 44.885C301.902 45.679 302.171 46.49 302.486 47.313C302.789 48.101 303.13 48.875 303.507 49.632C304.794 52.218 306.495 54.567 308.521 56.593C313.148 61.218 319.46 64.1491 326.444 64.3671H328.15C329.432 64.3251 330.707 64.189 331.963 63.966C332.46 63.877 332.946 63.777 333.422 63.664V63.662C335.912 63.072 338.262 62.135 340.416 60.905L342.642 59.635H342.705V67.623L341.853 68.05L341.848 68.053L341.825 68.065C341.169 68.379 340.542 68.66 339.949 68.902C339.345 69.148 338.697 69.387 338.011 69.619C335.11 70.597 332.028 71.189 328.827 71.333V71.381H325.754V71.333C323.209 71.218 320.736 70.8191 318.371 70.1691C317.413 69.9061 316.504 69.6141 315.644 69.2961C311.058 67.5991 306.947 64.934 303.563 61.55C300.538 58.525 298.084 54.909 296.382 50.886C296.003 49.988 295.667 49.0901 295.378 48.1991C295.082 47.2871 294.822 46.354 294.604 45.402C294.154 43.453 293.876 41.434 293.783 39.362H293.734V36.289H293.783C293.897 33.745 294.295 31.271 294.946 28.905C295.21 27.949 295.501 27.039 295.818 26.179C297.515 21.592 300.181 17.482 303.564 14.098C306.589 11.073 310.205 8.61905 314.228 6.91805C315.127 6.53805 316.025 6.20105 316.915 5.91305C317.827 5.61705 318.76 5.35705 319.713 5.13905C321.66 4.69005 323.68 4.41005 325.753 4.31805V4.27004H327.287L327.29 4.26904Z" fill="black"/>
<path d="M83.281 5.25H117.706C117.706 7.577 117.706 9.906 117.706 12.233H90.624V34.012H113.53C113.53 36.332 113.53 38.653 113.53 40.972H90.624V63.291H119.136C119.136 65.611 119.136 67.931 119.136 70.251H83.281V5.25Z" fill="black"/>
<path d="M394.927 0.0258789C406.279 25.2179 417.632 50.4109 428.986 75.6019C417.63 70.8959 406.274 66.1889 394.916 61.4829C383.572 66.1769 372.227 70.8719 360.884 75.5669L394.927 0.0258789ZM394.927 15.9999L373.66 63.1879C380.746 60.2559 387.832 57.3209 394.92 54.3899C402.01 57.3289 409.108 60.2719 416.202 63.2109L394.927 15.9999Z" fill="#F85040"/>
<path d="M175.231 4.2561C193.115 4.2561 208.346 19.8631 208.346 37.8081V37.8111C208.346 55.7891 193.152 71.3671 175.233 71.3671H175.228C157.344 71.3671 142.113 55.7571 142.113 37.8151V37.8091C142.113 19.8791 157.354 4.2561 175.227 4.2561H175.231ZM175.23 11.2691C166.36 11.2691 158.105 16.1011 153.349 23.5191C150.611 27.7881 149.125 32.7391 149.125 37.8111C149.125 45.0011 152.166 51.9591 157.316 56.9621C162.104 61.6131 168.538 64.3541 175.229 64.3541C182.419 64.3541 189.305 61.1761 194.17 55.9141C198.705 51.0091 201.334 44.4971 201.334 37.8111C201.334 32.2391 199.54 26.8201 196.285 22.2991C191.429 15.5541 183.588 11.2691 175.23 11.2691Z" fill="black"/>
<path d="M454.234 5.19995L491.484 55.725V5.20095H498.484V70.158H493.495L455.916 19.266V70.158H448.904V5.19995H454.234Z" fill="black"/>
<path d="M235.083 28.4149C232.268 22.4579 233.079 15.3349 237.627 10.3949L237.671 10.3469L237.677 10.3409C241.684 6.0209 247.681 4.0819 253.505 4.2459H253.517C258.601 4.4369 263.486 5.9809 268.189 7.8439L265.615 14.3599C261.642 12.7819 257.349 11.3089 253.029 11.2229L252.971 11.2209C248.881 11.1549 244.294 12.7049 241.94 16.1889L241.929 16.2059C240.018 19.0359 240.049 22.5569 241.467 25.5209C243.691 30.1709 248.846 32.7569 253.137 35.1169C258.747 38.1989 263.4 41.0269 266.662 46.7119L266.608 46.7419C268.524 50.7759 269.026 55.5669 267.642 59.8519L267.646 59.8529L267.645 59.8579L267.639 59.8639C265.703 65.8509 260.362 69.5519 254.508 71.0439C245.271 73.4019 236.004 70.7289 229.09 64.6609C230.627 62.9049 232.163 61.1479 233.7 59.3929C237.186 62.5049 241.302 64.6239 246.07 65.0829C252.316 65.6869 259.101 63.5459 260.984 57.7229L260.986 57.7169C261.99 54.6009 261.332 50.7169 259.34 48.1549C256.841 44.9419 252.969 42.8369 249.06 40.7119C243.393 37.6309 237.909 34.3959 235.083 28.4149Z" fill="black"/>
</svg>
