<svg width="24" height="24" viewBox="0 0 24 24" fill="none" xmlns="http://www.w3.org/2000/svg">
<g clip-path="url(#clip0_5_24)">
<path d="M2.57491 1.93008V15.2145H15.8593V1.93008H2.57491ZM17.7894 15.2145C17.7894 16.2804 16.9252 17.1445 15.8593 17.1445H2.57491C1.57546 17.1445 0.753883 16.3848 0.655195 15.4114L0.644829 15.2145V1.93008C0.644829 0.864126 1.50896 1.4754e-08 2.57491 0H15.8593L16.0562 0.0103666C17.0297 0.109054 17.7894 0.930636 17.7894 1.93008V15.2145Z" fill="#666666"/>
<path d="M6.93112 6.28627C6.42235 6.79503 5.59748 6.79503 5.08871 6.28627C4.57994 5.7775 4.57994 4.95263 5.08871 4.44386C5.59748 3.93509 6.42235 3.93509 6.93112 4.44386C7.43989 4.95263 7.43989 5.7775 6.93112 6.28627Z" fill="#666666"/>
<path d="M10.1383 9.49345C9.62953 10.0022 8.80465 10.0022 8.29589 9.49345C7.78712 8.98468 7.78712 8.1598 8.29589 7.65104C8.80465 7.14227 9.62953 7.14227 10.1383 7.65104C10.6471 8.1598 10.6471 8.98468 10.1383 9.49345Z" fill="#666666"/>
<path d="M13.3455 12.7006C12.8367 13.2094 12.0118 13.2094 11.5031 12.7006C10.9943 12.1919 10.9943 11.367 11.5031 10.8582C12.0118 10.3494 12.8367 10.3494 13.3455 10.8582C13.8542 11.367 13.8542 12.1919 13.3455 12.7006Z" fill="#666666"/>
<path d="M21.4251 22.0699H8.14072V16.2219H6.21064V22.0699L6.221 22.2669C6.31969 23.2403 7.14127 24 8.14072 24H21.4251C22.491 24 23.3552 23.1359 23.3552 22.0699V8.78555C23.3552 7.7861 22.5955 6.96452 21.6221 6.86584L21.4251 6.85547H16.7154V8.78555H21.4251V22.0699Z" fill="#666666"/>
</g>
<defs>
<clipPath id="clip0_5_24">
<rect width="24" height="24" fill="white"/>
</clipPath>
</defs>
</svg>
